<svg xmlns="http://www.w3.org/2000/svg" viewBox="0 0 24 24" width="24" height="24">
    <path fill="#FCC624" d="M12.504 0c-.155 0-.315.008-.48.021-4.226.333-3.105 4.807-3.17 6.298-.076 1.092-.3 1.953-1.05 3.02-.885 1.051-2.127 2.75-2.716 4.521-.278.832-.41 1.684-.287 2.489a.424.424 0 00-.11.135c-.26.268-.45.6-.663.839-.199.199-.485.267-.797.4-.313.136-.658.269-.864.68-.09.189-.136.394-.132.602 0 .199.027.4.055.536.058.399.116.728.04.97-.249.68-.28 1.145-.106 1.484.174.334.535.47.94.601.81.2 1.91.135 2.774.6.926.466 1.866.67 2.616.47.526-.116.97-.464 1.208-.946.587-.003 1.23-.269 2.26-.334.699-.058 1.574.267 2.577.2.025.134.063.198.114.333l.003.003c.391.778 1.113 1.132 1.884 1.071.771-.06 1.592-.536 2.257-1.306.631-.765 1.683-1.084 2.378-1.503.348-.199.629-.469.649-.853.023-.4-.2-.811-.714-1.376v-.097l-.003-.003c-.17-.2-.25-.535-.338-.926-.085-.401-.182-.786-.492-1.046h-.003c-.059-.054-.123-.067-.188-.135a.357.357 0 00-.19-.064c.431-1.278.264-2.55-.173-3.694-.533-1.41-1.465-2.638-2.175-3.483-.796-1.005-1.576-1.957-1.56-3.368.026-2.152.236-6.133-3.544-6.139zm.529 3.405h.013c.213 0 .396.062.584.198.19.135.33.332.438.533.105.259.158.459.166.724 0-.02.006-.04.006-.06v.105a.086.086 0 01-.004-.021l-.004-.024a1.807 1.807 0 01-.15.706.953.953 0 01-.213.335.71.71 0 00-.088-.042c-.104-.045-.198-.064-.284-.133a1.312 1.312 0 00-.22-.066c.05-.06.146-.133.183-.198.053-.128.082-.264.088-.402v-.02a1.21 1.21 0 00-.061-.4c-.045-.134-.101-.2-.183-.333-.084-.066-.167-.132-.267-.132h-.016c-.093 0-.176.03-.262.132a.8.8 0 00-.205.334 1.18 1.18 0 00-.09.4v.019c.002.089.008.179.02.267-.193-.067-.438-.135-.607-.202-.01-.065-.016-.132-.018-.199v-.02a1.19 1.19 0 01.061-.4c.045-.134.101-.2.183-.333.084-.066.167-.132.267-.132h.016zm-4.031 7.803c.181.087.351.181.527.264.176.086.339.181.527.264.313.151.639.264.857.476.224.21.4.572.4.836 0 .267-.183.637-.387.834-.2.198-.443.401-.667.543-.467.29-.916.511-1.2.752a1.306 1.306 0 00-.4.543c-.113.2-.176.402-.176.669v.061c-.077-.135-.113-.333-.113-.538 0-.267.176-.669.352-.9.176-.269.4-.4.667-.668.268-.201.528-.434.716-.669.2-.199.268-.401.268-.669 0-.268-.184-.669-.551-.836-.367-.155-.934-.4-1.383-.599-.45-.202-.838-.337-1.116-.47-.278-.134-.494-.2-.667-.334-.087-.066-.184-.134-.3-.267-.114-.136-.15-.266-.15-.533 0-.135.045-.335.114-.47.07-.134.133-.2.267-.333.133-.134.267-.2.534-.267.266-.066.533-.066.934-.066h.533c.532.002.805.134 1.07.267.268.134.482.2.75.4zm8.287 4.802c.064.132.096.286.096.47 0 .334-.133.667-.4.834-.315.2-.585.334-.854.467-.266.134-.45.335-.583.47-.135.132-.202.334-.202.467v.266c0 .2.053.401.135.535.081.135.221.269.27.47.135.4-.034.732-.27 1-.268.266-.737.467-1.203.467-.401 0-.803-.134-1.07-.4-.268-.27-.402-.67-.402-1.135 0-.465.134-.932.268-1.199.134-.399.4-.666.667-1 .268-.332.45-.666.716-.932.267-.267.533-.4.667-.4.133 0 .401.133.534.133.135 0 .402-.132.535-.132.133 0 .333.132.466.132z"/></svg>
